<svg width="56" height="56" viewBox="0 0 56 56" fill="none" xmlns="http://www.w3.org/2000/svg">
<path d="M0 15.9981C0 7.16151 7.16344 -0.00195312 16 -0.00195312H40C48.8366 -0.00195312 56 7.16149 56 15.998V39.998C56 48.8345 48.8366 55.998 40 55.998H16C7.16344 55.998 0 48.8345 0 39.998V15.9981Z" fill="white"/>
<path d="M22.75 31.498C22.75 31.0838 23.0858 30.748 23.5 30.748C23.9142 30.748 24.25 31.0838 24.25 31.498C24.25 31.9123 23.9142 32.248 23.5 32.248C23.0858 32.248 22.75 31.9123 22.75 31.498Z" stroke="#4402FF" stroke-width="1.5"/>
<path d="M27.5 24.498H34.5" stroke="#4402FF" stroke-width="1.5" stroke-linecap="round"/>
<path d="M27.5 30.998H34.5" stroke="#4402FF" stroke-width="1.5" stroke-linecap="round"/>
<rect x="18.75" y="18.748" width="18.5" height="18.5" rx="2.25" stroke="#4402FF" stroke-width="1.5"/>
<path d="M23.3207 22.3614C23.394 22.2128 23.606 22.2128 23.6793 22.3614L24.1882 23.3925C24.2173 23.4515 24.2736 23.4924 24.3388 23.5019L25.4766 23.6672C25.6407 23.6911 25.7062 23.8927 25.5875 24.0084L24.7641 24.8109C24.717 24.8569 24.6955 24.9231 24.7066 24.988L24.901 26.1212C24.929 26.2846 24.7575 26.4092 24.6108 26.332L23.5931 25.797C23.5348 25.7663 23.4652 25.7663 23.4069 25.797L22.3892 26.332C22.2425 26.4092 22.071 26.2846 22.099 26.1212L22.2934 24.988C22.3045 24.9231 22.283 24.8569 22.2359 24.8109L21.4125 24.0084C21.2938 23.8927 21.3593 23.6911 21.5234 23.6672L22.6612 23.5019C22.7264 23.4924 22.7827 23.4515 22.8118 23.3925L23.3207 22.3614Z" fill="#4402FF"/>
</svg>
