<svg width="56" height="56" viewBox="0 0 56 56" fill="none" xmlns="http://www.w3.org/2000/svg">
<path d="M0 15.9981C0 7.16151 7.16344 -0.00195312 16 -0.00195312H40C48.8366 -0.00195312 56 7.16149 56 15.998V39.998C56 48.8345 48.8366 55.998 40 55.998H16C7.16344 55.998 0 48.8345 0 39.998V15.9981Z" fill="white"/>
<path d="M21.2027 29.5536V22.398C21.2027 21.6248 21.8943 20.998 22.7475 20.998H33.2525C34.1057 20.998 34.7973 21.6248 34.7973 22.398V29.5536M21.2027 29.5536H34.7973M21.2027 29.5536L20.0592 33.217C19.7804 34.1105 20.5211 34.998 21.5458 34.998H34.4542C35.4789 34.998 36.2197 34.1105 35.9407 33.217L34.7973 29.5536" stroke="#4402FF" stroke-width="1.5"/>
<path d="M27.2266 32.8984H28.7714" stroke="#4402FF" stroke-width="1.5" stroke-linecap="round" stroke-linejoin="round"/>
</svg>
