<svg width="41" height="40" viewBox="0 0 41 40" fill="none" xmlns="http://www.w3.org/2000/svg">
<path d="M20.5235 7.51273C20.6309 7.22255 21.0413 7.22255 21.1487 7.51273L22.3095 10.6499C23.6599 14.2991 26.5371 17.1764 30.1864 18.5267L33.3235 19.6876C33.6137 19.7949 33.6137 20.2054 33.3235 20.3128L30.1864 21.4736C26.5371 22.824 23.6599 25.7012 22.3095 29.3505L21.1487 32.4876C21.0413 32.7778 20.6309 32.7778 20.5235 32.4876L19.3627 29.3505C18.0123 25.7012 15.1351 22.824 11.4858 21.4736L8.34867 20.3128C8.05849 20.2054 8.05849 19.7949 8.34867 19.6876L11.4858 18.5267C15.1351 17.1764 18.0123 14.2991 19.3627 10.6499L20.5235 7.51273Z" fill="#4402FF"/>
<path d="M10.7216 6.97963C10.7612 6.87257 10.9127 6.87257 10.9523 6.97963V6.97963C11.4505 8.32598 12.512 9.3875 13.8583 9.88569V9.88569C13.9654 9.92531 13.9654 10.0767 13.8583 10.1163V10.1163C12.512 10.6145 11.4505 11.6761 10.9523 13.0224V13.0224C10.9127 13.1295 10.7612 13.1295 10.7216 13.0224V13.0224C10.2234 11.6761 9.16192 10.6145 7.81557 10.1163V10.1163C7.70851 10.0767 7.70851 9.92531 7.81557 9.88569V9.88569C9.16192 9.3875 10.2234 8.32598 10.7216 6.97963V6.97963Z" fill="#4402FF"/>
<path d="M30.7197 26.9777C30.7593 26.8706 30.9107 26.8706 30.9503 26.9777V26.9777C31.4485 28.324 32.51 29.3855 33.8564 29.8837V29.8837C33.9634 29.9234 33.9634 30.0748 33.8564 30.1144V30.1144C32.51 30.6126 31.4485 31.6741 30.9503 33.0204V33.0204C30.9107 33.1275 30.7593 33.1275 30.7197 33.0204V33.0204C30.2215 31.6741 29.16 30.6126 27.8136 30.1144V30.1144C27.7066 30.0748 27.7066 29.9234 27.8136 29.8837V29.8837C29.16 29.3855 30.2215 28.324 30.7197 26.9777V26.9777Z" fill="#4402FF"/>
</svg>
