<svg width="40" height="40" viewBox="0 0 40 40" fill="none" xmlns="http://www.w3.org/2000/svg">
<path fill-rule="evenodd" clip-rule="evenodd" d="M34.9605 4.09929C34.7111 3.33149 33.6248 3.33149 33.3753 4.09929L32.6711 6.26678C32.5595 6.61015 32.2395 6.84263 31.8785 6.84263H29.5995C28.7921 6.84263 28.4565 7.87571 29.1096 8.35024L30.9534 9.68982C31.2455 9.90204 31.3677 10.2782 31.2561 10.6216L30.5519 12.7891C30.3024 13.5569 31.1812 14.1953 31.8343 13.7208L33.6781 12.3812C33.9702 12.169 34.3657 12.169 34.6578 12.3812L36.5016 13.7208C37.1547 14.1953 38.0335 13.5569 37.784 12.7891L37.0798 10.6216C36.9682 10.2782 37.0904 9.90204 37.3825 9.68982L39.2263 8.35024C39.8794 7.87571 39.5437 6.84263 38.7364 6.84263H36.4574C36.0963 6.84263 35.7764 6.61015 35.6648 6.26678L34.9605 4.09929ZM11.666 16.6648C11.666 12.9827 14.6509 9.99769 18.3331 9.99769H21.6666C25.3487 9.99769 28.3337 12.9827 28.3337 16.6648C28.3337 20.3469 25.3488 23.3319 21.6666 23.3319H18.3331C14.6509 23.3319 11.666 20.3469 11.666 16.6648ZM6.66566 29.999C6.66566 27.2374 8.90438 24.9987 11.666 24.9987H28.3337C31.0953 24.9987 33.334 27.2374 33.334 29.999V31.6657C33.334 34.4273 31.0953 36.6661 28.3337 36.6661H11.666C8.90438 36.6661 6.66566 34.4273 6.66566 31.6657V29.999ZM4.58219 28.3322C4.58219 27.1815 5.51499 26.2487 6.66566 26.2487V23.7486C4.13419 23.7486 2.08203 25.8007 2.08203 28.3322V31.6657H4.58219V28.3322ZM8.33243 11.6645H9.99921V21.6651H8.33243C5.57083 21.6651 3.33211 19.4264 3.33211 16.6648C3.33211 13.9032 5.57083 11.6645 8.33243 11.6645Z" fill="white"/>
</svg>
