<svg width="40" height="40" viewBox="0 0 40 40" fill="none" xmlns="http://www.w3.org/2000/svg">
<path d="M16.6312 21.6302L24.3338 13.2274C24.7699 12.7516 25.0585 12.1595 25.1646 11.5229L25.6868 8.3897C25.7841 7.80582 26.0352 7.25838 26.4141 6.80365L29.0378 3.65527C29.5557 3.03368 30.4957 2.99105 31.0678 3.56319C31.4363 3.93172 31.565 4.47685 31.4002 4.97129L30.8778 6.53855C30.4806 7.73013 31.4941 8.91622 32.733 8.70973L34.2127 8.46312C34.7085 8.38049 35.2136 8.54237 35.569 8.89777C36.1768 9.50553 36.1768 10.4909 35.569 11.0987L32.6455 14.0222C32.0203 14.6473 31.1724 14.9985 30.2883 14.9985H28.7989C27.9649 14.9985 27.1611 15.3112 26.5463 15.8748L18.3704 23.3694C17.8845 23.8147 17.1342 23.7984 16.6682 23.3324C16.2022 22.8664 16.1859 22.116 16.6312 21.6302Z" fill="white"/>
<path d="M20.8185 23.7065C20.6294 25.8326 18.8434 27.4993 16.6682 27.4993C14.3668 27.4993 12.5012 25.6337 12.5012 23.3324C12.5012 21.2273 14.0623 19.4867 16.09 19.2053L18.2065 16.8437C17.7127 16.727 17.1976 16.6653 16.6682 16.6653C12.986 16.6653 10.0011 19.6503 10.0011 23.3324C10.0011 27.0145 12.986 29.9995 16.6682 29.9995C20.3503 29.9995 23.3353 27.0145 23.3353 23.3324C23.3353 22.8038 23.2737 22.2896 23.1575 21.7965L20.8185 23.7065Z" fill="white"/>
<path d="M26.5962 18.9884C27.1789 20.3182 27.5022 21.7876 27.5022 23.3324C27.5022 29.3159 22.6516 34.1664 16.6682 34.1664C10.6847 34.1664 5.83414 29.3159 5.83414 23.3324C5.83414 17.3489 10.6847 12.4984 16.6682 12.4984C18.2898 12.4984 19.8282 12.8547 21.2093 13.4932L22.9399 11.5623C21.0705 10.5641 18.9354 9.99823 16.6682 9.99823C9.3039 9.99823 3.33398 15.9681 3.33398 23.3324C3.33398 30.6967 9.3039 36.6666 16.6682 36.6666C24.0324 36.6666 30.0024 30.6967 30.0024 23.3324C30.0024 21.1846 29.4945 19.1553 28.5924 17.3582L26.5962 18.9884Z" fill="white"/>
</svg>
