<svg width="56" height="56" viewBox="0 0 56 56" fill="none" xmlns="http://www.w3.org/2000/svg">
<path d="M0 15.9981C0 7.16151 7.16344 -0.00195312 16 -0.00195312H40C48.8366 -0.00195312 56 7.16149 56 15.998V39.998C56 48.8345 48.8366 55.998 40 55.998H16C7.16344 55.998 0 48.8345 0 39.998V15.9981Z" fill="white"/>
<path fill-rule="evenodd" clip-rule="evenodd" d="M27 18.998C24.7909 18.998 23 20.7889 23 22.998C23 25.2072 24.7909 26.998 27 26.998H29C31.2091 26.998 33 25.2072 33 22.998C33 20.7889 31.2091 18.998 29 18.998H27ZM23 29.998C21.3431 29.998 20 31.3412 20 32.998V33.998C20 35.6549 21.3431 36.998 23 36.998H33C34.6569 36.998 36 35.6549 36 33.998V32.998C36 31.3412 34.6569 29.998 33 29.998H23ZM20 29.748C19.3096 29.748 18.75 30.3077 18.75 30.998V32.998H17.25V30.998C17.25 29.4793 18.4812 28.248 20 28.248V29.748ZM37.25 30.998C37.25 30.3077 36.6904 29.748 36 29.748V28.248C37.5188 28.248 38.75 29.4793 38.75 30.998V32.998H37.25V30.998ZM34 21.2137V20.248H34.5C36.2949 20.248 37.75 21.7031 37.75 23.498C37.75 25.293 36.2949 26.748 34.5 26.748H34V25.7824V25.248V21.748V21.2137ZM22 20.248V21.2137V21.748V25.248V25.7824V26.748H21.5C19.7051 26.748 18.25 25.293 18.25 23.498C18.25 21.7031 19.7051 20.248 21.5 20.248H22Z" fill="#4402FF"/>
</svg>
