<svg width="56" height="56" viewBox="0 0 56 56" fill="none" xmlns="http://www.w3.org/2000/svg">
<path d="M0 15.9981C0 7.16151 7.16344 -0.00195312 16 -0.00195312H40C48.8366 -0.00195312 56 7.16149 56 15.998V39.998C56 48.8345 48.8366 55.998 40 55.998H16C7.16344 55.998 0 48.8345 0 39.998V15.9981Z" fill="white"/>
<path d="M19 25.9141C19 25.2237 19.5596 24.6641 20.25 24.6641C20.9404 24.6641 21.5 25.2237 21.5 25.9141V36.7474C21.5 37.4378 20.9404 37.9974 20.25 37.9974C19.5596 37.9974 19 37.4378 19 36.7474V25.9141Z" fill="#4402FF"/>
<path d="M25.9238 22.582C25.9238 21.8917 26.4835 21.332 27.1738 21.332C27.8642 21.332 28.4238 21.8917 28.4238 22.582V36.7487C28.4238 37.4391 27.8642 37.9987 27.1738 37.9987C26.4835 37.9987 25.9238 37.4391 25.9238 36.7487V22.582Z" fill="#4402FF"/>
<path d="M32.8457 19.248C32.8457 18.5577 33.4053 17.998 34.0957 17.998C34.7861 17.998 35.3457 18.5577 35.3457 19.248V36.748C35.3457 37.4384 34.7861 37.998 34.0957 37.998C33.4053 37.998 32.8457 37.4384 32.8457 36.748V19.248Z" fill="#4402FF"/>
</svg>
