<svg width="24" height="25" viewBox="0 0 24 25" fill="none" xmlns="http://www.w3.org/2000/svg">
<path d="M11.4286 3.09687C9.53502 3.09687 8 4.65867 8 6.58524V9.97671H4.95238V7.14164C3.82345 7.71246 3.04762 8.89775 3.04762 10.2674V10.8488C3.04762 12.3141 3.93559 13.5684 5.19391 14.085C5.79417 12.3145 7.44634 11.0426 9.39048 11.0426H9.80672V14.1434H9.39048C8.62254 14.1434 8 14.7768 8 15.5581C8 16.3394 8.62254 16.9728 9.39048 16.9728H10.381C13.3791 16.9728 15.8095 19.4457 15.8095 22.4961V24.9961H12.7619V22.4961C12.7619 21.1582 11.6959 20.0736 10.381 20.0736H9.39048C7.55791 20.0736 5.98476 18.9435 5.3075 17.3309C2.28864 16.7712 0 14.0819 0 10.8488V10.2674C0 6.93575 2.4303 4.18161 5.58558 3.74006C6.62922 1.52539 8.85336 -0.00390625 11.4286 -0.00390625H12.1905C14.2261 -0.00390625 16.0131 1.07908 17.0253 2.70965C20.884 2.74946 24 5.9444 24 9.87982V11.2364H20.9524V9.87982C20.9524 7.63214 19.1615 5.81005 16.9524 5.81005L14.8571 5.81005C14.8571 4.3116 13.6632 3.09687 12.1905 3.09687H11.4286Z" fill="url(#paint0_linear_2970_38474)"/>
<path d="M20.9438 15.3062L20.9419 15.3062V12.2054C22.6309 12.2054 24 13.5984 24 15.3168V15.8876C24 17.9212 22.3797 19.5697 20.381 19.5697H19.1857C17.2159 19.5697 15.619 17.945 15.619 15.9409H18.6667C18.6667 16.2325 18.8991 16.469 19.1857 16.469H20.381C20.6965 16.469 20.9524 16.2087 20.9524 15.8876V15.3168C20.9524 15.3153 20.9523 15.3143 20.9523 15.3138L20.9522 15.3131C20.9522 15.3131 20.9519 15.3125 20.9516 15.312C20.9511 15.3113 20.9504 15.3104 20.9493 15.3093C20.9486 15.3086 20.948 15.308 20.9475 15.3076C20.9465 15.3069 20.9456 15.3064 20.9456 15.3064L20.9449 15.3063L20.9438 15.3062Z" fill="url(#paint1_linear_2970_38474)"/>
<path d="M13.1429 10.655C13.1429 10.1198 13.5693 9.68602 14.0952 9.68602H14.381C15.0647 9.68602 15.619 10.25 15.619 10.9457V14.3372H18.6667V10.9457C18.6667 8.53749 16.7479 6.58524 14.381 6.58524H14.0952C11.8861 6.58524 10.0952 8.40734 10.0952 10.655H13.1429Z" fill="url(#paint2_linear_2970_38474)"/>
<defs>
<linearGradient id="paint0_linear_2970_38474" x1="0" y1="12.4961" x2="24" y2="12.4961" gradientUnits="userSpaceOnUse">
<stop stop-color="#B694FF"/>
<stop offset="1" stop-color="#4402FF"/>
</linearGradient>
<linearGradient id="paint1_linear_2970_38474" x1="0" y1="12.4961" x2="24" y2="12.4961" gradientUnits="userSpaceOnUse">
<stop stop-color="#B694FF"/>
<stop offset="1" stop-color="#4402FF"/>
</linearGradient>
<linearGradient id="paint2_linear_2970_38474" x1="0" y1="12.4961" x2="24" y2="12.4961" gradientUnits="userSpaceOnUse">
<stop stop-color="#B694FF"/>
<stop offset="1" stop-color="#4402FF"/>
</linearGradient>
</defs>
</svg>
