<svg width="24" height="26" viewBox="0 0 24 26" fill="none" xmlns="http://www.w3.org/2000/svg">
<path d="M11.4286 3.60078C9.53502 3.60078 8 5.16257 8 7.08915V10.4806H4.95238V7.64555C3.82345 8.21636 3.04762 9.40166 3.04762 10.7713V11.3527C3.04762 12.818 3.93559 14.0723 5.19391 14.5889C5.79417 12.8184 7.44634 11.5465 9.39048 11.5465H9.80672V14.6473H9.39048C8.62254 14.6473 8 15.2807 8 16.062C8 16.8433 8.62254 17.4767 9.39048 17.4767H10.381C13.3791 17.4767 15.8095 19.9496 15.8095 23V25.5H12.7619V23C12.7619 21.6621 11.6959 20.5775 10.381 20.5775H9.39048C7.55791 20.5775 5.98476 19.4474 5.3075 17.8349C2.28864 17.2751 0 14.5858 0 11.3527V10.7713C0 7.43965 2.4303 4.68551 5.58558 4.24397C6.62922 2.02929 8.85336 0.5 11.4286 0.5H12.1905C14.2261 0.5 16.0131 1.58298 17.0253 3.21355C20.884 3.25337 24 6.44831 24 10.3837V11.7403H20.9524V10.3837C20.9524 8.13605 19.1615 6.31395 16.9524 6.31395L14.8571 6.31395C14.8571 4.81551 13.6632 3.60078 12.1905 3.60078H11.4286Z" fill="#F3F5F7"/>
<path d="M20.9438 15.8101L20.9419 15.8101V12.7093C22.6309 12.7093 24 14.1023 24 15.8207V16.3915C24 18.4251 22.3797 20.0736 20.381 20.0736H19.1857C17.2159 20.0736 15.619 18.4489 15.619 16.4448H18.6667C18.6667 16.7364 18.8991 16.9729 19.1857 16.9729H20.381C20.6965 16.9729 20.9524 16.7126 20.9524 16.3915V15.8207C20.9524 15.8192 20.9523 15.8183 20.9523 15.8177L20.9522 15.817C20.9522 15.817 20.9519 15.8164 20.9516 15.8159C20.9511 15.8152 20.9504 15.8143 20.9493 15.8132C20.9486 15.8125 20.948 15.812 20.9475 15.8115C20.9465 15.8108 20.9456 15.8103 20.9456 15.8103L20.9449 15.8102L20.9438 15.8101Z" fill="#F3F5F7"/>
<path d="M13.1429 11.1589C13.1429 10.6238 13.5693 10.1899 14.0952 10.1899H14.381C15.0647 10.1899 15.619 10.7539 15.619 11.4496V14.8411H18.6667V11.4496C18.6667 9.04139 16.7479 7.08915 14.381 7.08915H14.0952C11.8861 7.08915 10.0952 8.91124 10.0952 11.1589H13.1429Z" fill="#F3F5F7"/>
</svg>
