<svg width="160" height="25" viewBox="0 0 160 25" fill="none" xmlns="http://www.w3.org/2000/svg">
<path d="M11.4286 3.09687C9.53502 3.09687 8 4.65867 8 6.58524V9.97671H4.95238V7.14164C3.82345 7.71246 3.04762 8.89775 3.04762 10.2674V10.8488C3.04762 12.3141 3.93559 13.5684 5.19391 14.085C5.79417 12.3145 7.44634 11.0426 9.39048 11.0426H9.80672V14.1434H9.39048C8.62254 14.1434 8 14.7768 8 15.5581C8 16.3394 8.62254 16.9728 9.39048 16.9728H10.381C13.3791 16.9728 15.8095 19.4457 15.8095 22.4961V24.9961H12.7619V22.4961C12.7619 21.1582 11.6959 20.0736 10.381 20.0736H9.39048C7.55791 20.0736 5.98476 18.9435 5.3075 17.3309C2.28864 16.7712 0 14.0819 0 10.8488V10.2674C0 6.93575 2.4303 4.18161 5.58558 3.74006C6.62922 1.52539 8.85336 -0.00390625 11.4286 -0.00390625H12.1905C14.2261 -0.00390625 16.0131 1.07908 17.0253 2.70965C20.884 2.74946 24 5.9444 24 9.87982V11.2364H20.9524V9.87982C20.9524 7.63214 19.1615 5.81005 16.9524 5.81005L14.8571 5.81005C14.8571 4.3116 13.6632 3.09687 12.1905 3.09687H11.4286Z" fill="url(#paint0_linear_2856_38558)"/>
<path d="M20.9438 15.3062L20.9419 15.3062V12.2054C22.6309 12.2054 24 13.5984 24 15.3168V15.8876C24 17.9212 22.3797 19.5697 20.381 19.5697H19.1857C17.2159 19.5697 15.619 17.945 15.619 15.9409H18.6667C18.6667 16.2325 18.8991 16.469 19.1857 16.469H20.381C20.6965 16.469 20.9524 16.2087 20.9524 15.8876V15.3168C20.9524 15.3153 20.9523 15.3143 20.9523 15.3138L20.9522 15.3131C20.9522 15.3131 20.9519 15.3125 20.9516 15.312C20.9511 15.3113 20.9504 15.3104 20.9493 15.3093C20.9486 15.3086 20.948 15.308 20.9475 15.3076C20.9465 15.3069 20.9456 15.3064 20.9456 15.3064L20.9449 15.3063L20.9438 15.3062Z" fill="url(#paint1_linear_2856_38558)"/>
<path d="M13.1429 10.655C13.1429 10.1198 13.5693 9.68602 14.0952 9.68602H14.381C15.0647 9.68602 15.619 10.25 15.619 10.9457V14.3372H18.6667V10.9457C18.6667 8.53749 16.7479 6.58524 14.381 6.58524H14.0952C11.8861 6.58524 10.0952 8.40734 10.0952 10.655H13.1429Z" fill="url(#paint2_linear_2856_38558)"/>
<path d="M45.8777 13.1289C46.1152 13.1289 46.4375 13.1372 46.8446 13.1538C47.2687 13.1538 47.7182 13.1868 48.1932 13.253C48.6682 13.3027 49.1431 13.4019 49.6181 13.5508C50.11 13.6832 50.5511 13.8817 50.9412 14.1465C51.3314 14.4112 51.6452 14.7504 51.8827 15.164C52.1371 15.5776 52.2644 16.0905 52.2644 16.7027C52.2644 17.6623 52.0438 18.4316 51.6028 19.0107C51.1787 19.5732 50.6529 20.0034 50.0252 20.3012C49.3976 20.599 48.7191 20.7893 47.9897 20.872C47.2772 20.9547 46.6411 20.9961 46.0813 20.9961C45.9795 20.9961 45.759 20.9878 45.4197 20.9713C45.0805 20.9713 44.6818 20.9299 44.2238 20.8472C43.7828 20.7645 43.3078 20.6321 42.7989 20.4501C42.307 20.2681 41.849 20.0117 41.4249 19.6808C41.0178 19.3333 40.6785 18.8949 40.4071 18.3654C40.1357 17.8195 40 17.1577 40 16.38H43.1043C43.1043 16.5289 43.1297 16.7109 43.1806 16.926C43.2315 17.1246 43.3502 17.3231 43.5368 17.5216C43.7234 17.7202 44.0033 17.8939 44.3765 18.0428C44.7497 18.1752 45.2586 18.2496 45.9032 18.2662C46.7005 18.2827 47.3111 18.2496 47.7352 18.1669C48.1762 18.0842 48.4985 17.9766 48.7021 17.8443C48.9057 17.6954 49.0244 17.5465 49.0583 17.3976C49.1092 17.2486 49.1347 17.108 49.1347 16.9757C49.1347 16.8268 49.1092 16.6778 49.0583 16.5289C49.0074 16.38 48.8717 16.2477 48.6512 16.1319C48.4477 15.9995 48.1169 15.892 47.6589 15.8092C47.2178 15.7265 46.5987 15.6769 45.8014 15.6603C45.1907 15.6438 44.5801 15.5611 43.9694 15.4122C43.3587 15.2632 42.8074 15.0399 42.3155 14.7421C41.8235 14.4277 41.4249 14.0389 41.1196 13.5757C40.8142 13.1124 40.6616 12.5664 40.6616 11.9377C40.6616 11.2428 40.8142 10.6389 41.1196 10.126C41.4249 9.59658 41.8235 9.16641 42.3155 8.83551C42.8244 8.50461 43.4011 8.25643 44.0457 8.09098C44.6903 7.92553 45.3688 7.84281 46.0813 7.84281C46.4545 7.84281 46.9549 7.88417 47.5825 7.9669C48.2102 8.04962 48.8208 8.23989 49.4146 8.5377C50.0252 8.83551 50.5426 9.27395 50.9667 9.85303C51.4077 10.4321 51.6198 11.218 51.6028 12.2107H48.4985C48.4985 11.6813 48.312 11.2676 47.9388 10.9698C47.5825 10.6555 46.9379 10.4983 46.005 10.4983C45.3095 10.4983 44.7497 10.6306 44.3256 10.8954C43.9015 11.1435 43.6895 11.491 43.6895 11.9377C43.6895 12.3679 43.893 12.674 44.3002 12.8559C44.7073 13.0379 45.2331 13.1289 45.8777 13.1289Z" fill="black"/>
<path d="M57.2887 20.7479H54.1845V3.99609H57.2887V13.1786L61.08 8.16544H64.515L60.5965 13.4019L66.0672 20.7479H62.6321L58.8408 15.6851L57.2887 17.6457V20.7479Z" fill="black"/>
<path d="M71.066 8.16544V20.7479H67.9618V8.16544H71.066ZM67.9618 5.36106C67.9618 4.99707 67.9618 4.72407 67.9618 4.54208C67.9788 4.36008 68.0296 4.22772 68.1145 4.145C68.2162 4.06227 68.3689 4.02091 68.5725 4.02091C68.793 4.00437 69.1068 3.99609 69.5139 3.99609C69.921 3.99609 70.2264 4.00437 70.4299 4.02091C70.6504 4.02091 70.8031 4.06227 70.8879 4.145C70.9897 4.22772 71.0406 4.36008 71.0406 4.54208C71.0576 4.72407 71.066 4.99707 71.066 5.36106C71.066 5.72505 71.0576 5.99804 71.0406 6.18004C71.0406 6.36203 70.9897 6.49439 70.8879 6.57712C70.8031 6.65984 70.6504 6.70948 70.4299 6.72602C70.2264 6.72602 69.921 6.72602 69.5139 6.72602C69.1068 6.72602 68.793 6.72602 68.5725 6.72602C68.3689 6.70948 68.2162 6.65984 68.1145 6.57712C68.0296 6.49439 67.9788 6.36203 67.9618 6.18004C67.9618 5.99804 67.9618 5.72505 67.9618 5.36106Z" fill="black"/>
<path d="M76.4458 3.99609V20.7479H73.3416V3.99609H76.4458Z" fill="black"/>
<path d="M81.8498 3.99609V20.7479H78.7456V3.99609H81.8498Z" fill="black"/>
<path d="M93.0058 3.99609V9.62967C93.1584 9.46422 93.3366 9.2905 93.5401 9.1085C93.7437 8.92651 93.9812 8.76106 94.2526 8.61215C94.524 8.46325 94.8378 8.34743 95.194 8.26471C95.5503 8.16544 95.9574 8.1158 96.4154 8.1158C96.9243 8.1158 97.4417 8.2068 97.9675 8.38879C98.5103 8.57079 98.9938 8.85205 99.4179 9.23259C99.8589 9.59658 100.215 10.0598 100.487 10.6224C100.775 11.1684 100.919 11.8136 100.919 12.5581V20.7479H97.8148V13.8983C97.8148 13.5012 97.7894 13.1372 97.7385 12.8063C97.6876 12.4589 97.5774 12.1528 97.4077 11.8881C97.2551 11.6233 97.0176 11.4165 96.6953 11.2676C96.3899 11.1187 95.9743 11.0443 95.4485 11.0443C94.9057 11.0443 94.4731 11.1187 94.1508 11.2676C93.8285 11.4165 93.574 11.6233 93.3875 11.8881C93.2178 12.1528 93.1076 12.4589 93.0567 12.8063C93.0058 13.1372 92.9803 13.5012 92.9803 13.8983L93.0312 20.7479H89.9015V3.99609H93.0058Z" fill="black"/>
<path d="M108.755 20.9961C108.705 20.9961 108.518 20.9878 108.196 20.9713C107.89 20.9547 107.526 20.8803 107.102 20.7479C106.677 20.6321 106.228 20.4418 105.753 20.1771C105.278 19.9124 104.837 19.5319 104.43 19.0355C104.023 18.5392 103.683 17.9187 103.412 17.1742C103.158 16.4131 103.03 15.4783 103.03 14.3698V8.16544H106.135V14.3698C106.135 14.7338 106.169 15.1061 106.236 15.4866C106.304 15.8671 106.432 16.2146 106.618 16.5289C106.805 16.8433 107.068 17.108 107.407 17.3231C107.746 17.5216 108.196 17.6209 108.755 17.6209C109.315 17.6209 109.765 17.5216 110.104 17.3231C110.443 17.108 110.706 16.8433 110.893 16.5289C111.079 16.2146 111.207 15.8671 111.275 15.4866C111.342 15.1061 111.376 14.7338 111.376 14.3698V8.16544H114.481V14.3698C114.481 15.4783 114.345 16.4131 114.073 17.1742C113.819 17.9187 113.488 18.5392 113.081 19.0355C112.674 19.5319 112.233 19.9124 111.758 20.1771C111.283 20.4418 110.833 20.6321 110.409 20.7479C109.985 20.8803 109.612 20.9547 109.29 20.9713C108.984 20.9878 108.806 20.9961 108.755 20.9961Z" fill="black"/>
<path d="M122.235 7.84281C122.286 7.84281 122.464 7.85108 122.77 7.86763C123.092 7.88417 123.465 7.95862 123.889 8.09098C124.313 8.2068 124.763 8.39707 125.238 8.66179C125.713 8.92651 126.154 9.30704 126.561 9.80339C126.968 10.2997 127.299 10.9285 127.553 11.6895C127.825 12.434 127.96 13.3606 127.96 14.4691V20.7479H124.856V14.4691C124.856 14.1051 124.822 13.7328 124.754 13.3523C124.686 12.9718 124.559 12.6243 124.373 12.31C124.186 11.9956 123.923 11.7392 123.584 11.5406C123.245 11.3255 122.795 11.218 122.235 11.218C121.675 11.218 121.226 11.3255 120.887 11.5406C120.547 11.7392 120.284 11.9956 120.098 12.31C119.911 12.6243 119.784 12.9718 119.716 13.3523C119.648 13.7328 119.614 14.1051 119.614 14.4691V20.7479H116.51V14.4691C116.51 13.3606 116.637 12.434 116.892 11.6895C117.163 10.9285 117.503 10.2997 117.91 9.80339C118.317 9.30704 118.758 8.92651 119.233 8.66179C119.708 8.39707 120.157 8.2068 120.581 8.09098C121.005 7.95862 121.37 7.88417 121.675 7.86763C121.981 7.85108 122.167 7.84281 122.235 7.84281Z" fill="black"/>
<path d="M133.196 11.1187V16.653C133.247 16.8516 133.34 17.0336 133.476 17.199C133.595 17.3314 133.756 17.4555 133.959 17.5713C134.18 17.6871 134.46 17.745 134.799 17.745H136.733V20.7479H133.629C132.967 20.6817 132.373 20.4997 131.847 20.2019C131.406 19.9538 130.999 19.5898 130.626 19.11C130.27 18.6136 130.092 17.9353 130.092 17.0749V4.79025H133.196V8.16544H136.122V11.1187H133.196Z" fill="black"/>
<path d="M150.634 12.8559C150.667 13.1041 150.693 13.3606 150.71 13.6253C150.744 13.89 150.761 14.1713 150.761 14.4691V14.9158H141.855C141.889 15.1971 141.931 15.4866 141.982 15.7844C142.033 16.0657 142.118 16.3469 142.237 16.6282C142.423 17.0584 142.712 17.4389 143.102 17.7698C143.492 18.1007 144.035 18.2662 144.73 18.2662C145.426 18.2662 145.969 18.1007 146.359 17.7698C146.749 17.4389 147.037 17.0584 147.224 16.6282H150.532C150.396 17.2073 150.201 17.7119 149.947 18.1421C149.709 18.5722 149.438 18.9445 149.132 19.2589C148.844 19.5732 148.53 19.8379 148.191 20.053C147.852 20.2516 147.521 20.417 147.199 20.5494C146.418 20.8472 145.595 20.9961 144.73 20.9961C143.594 20.9795 142.585 20.7479 141.702 20.3012C141.329 20.1027 140.956 19.8545 140.583 19.5567C140.227 19.2423 139.904 18.8535 139.616 18.3903C139.345 17.927 139.124 17.3727 138.954 16.7275C138.785 16.0822 138.7 15.3294 138.7 14.4691C138.7 13.6087 138.785 12.8559 138.954 12.2107C139.124 11.5654 139.345 11.0112 139.616 10.5479C139.904 10.0681 140.227 9.67103 140.583 9.35668C140.956 9.04232 141.329 8.78587 141.702 8.58733C142.585 8.12407 143.594 7.8759 144.73 7.84281C145.663 7.8759 146.537 8.06617 147.351 8.41361C147.69 8.56252 148.03 8.76106 148.369 9.00923C148.725 9.24086 149.048 9.53867 149.336 9.90266C149.641 10.2501 149.904 10.672 150.125 11.1684C150.362 11.6482 150.532 12.2107 150.634 12.8559ZM147.428 12.8559C147.343 12.5912 147.232 12.3265 147.097 12.0618C146.978 11.7971 146.808 11.5572 146.588 11.3421C146.367 11.127 146.104 10.9615 145.799 10.8457C145.494 10.7134 145.137 10.6472 144.73 10.6472C144.323 10.6472 143.967 10.7134 143.662 10.8457C143.356 10.9615 143.093 11.127 142.873 11.3421C142.652 11.5572 142.474 11.7971 142.339 12.0618C142.203 12.3265 142.101 12.5912 142.033 12.8559H147.428Z" fill="black"/>
<path d="M152.875 11.8384C152.875 10.9781 153.062 10.308 153.435 9.82821C153.808 9.33186 154.216 8.9596 154.657 8.71142C155.182 8.41361 155.776 8.23162 156.438 8.16544H160V11.1684H157.608C157.269 11.1684 156.989 11.2263 156.769 11.3421C156.565 11.4579 156.404 11.582 156.285 11.7143C156.149 11.8798 156.056 12.0618 156.005 12.2603V20.7479H152.875V11.8384Z" fill="black"/>
<defs>
<linearGradient id="paint0_linear_2856_38558" x1="0" y1="12.4961" x2="24" y2="12.4961" gradientUnits="userSpaceOnUse">
<stop stop-color="#B694FF"/>
<stop offset="1" stop-color="#4402FF"/>
</linearGradient>
<linearGradient id="paint1_linear_2856_38558" x1="0" y1="12.4961" x2="24" y2="12.4961" gradientUnits="userSpaceOnUse">
<stop stop-color="#B694FF"/>
<stop offset="1" stop-color="#4402FF"/>
</linearGradient>
<linearGradient id="paint2_linear_2856_38558" x1="0" y1="12.4961" x2="24" y2="12.4961" gradientUnits="userSpaceOnUse">
<stop stop-color="#B694FF"/>
<stop offset="1" stop-color="#4402FF"/>
</linearGradient>
</defs>
</svg>
