<svg width="160" height="26" viewBox="0 0 160 26" fill="none" xmlns="http://www.w3.org/2000/svg">
<path d="M11.4286 3.60078C9.53502 3.60078 8 5.16257 8 7.08915V10.4806H4.95238V7.64555C3.82345 8.21636 3.04762 9.40166 3.04762 10.7713V11.3527C3.04762 12.818 3.93559 14.0723 5.19391 14.5889C5.79417 12.8184 7.44634 11.5465 9.39048 11.5465H9.80672V14.6473H9.39048C8.62254 14.6473 8 15.2807 8 16.062C8 16.8433 8.62254 17.4767 9.39048 17.4767H10.381C13.3791 17.4767 15.8095 19.9496 15.8095 23V25.5H12.7619V23C12.7619 21.6621 11.6959 20.5775 10.381 20.5775H9.39048C7.55791 20.5775 5.98476 19.4474 5.3075 17.8349C2.28864 17.2751 0 14.5858 0 11.3527V10.7713C0 7.43965 2.4303 4.68551 5.58558 4.24397C6.62922 2.02929 8.85336 0.5 11.4286 0.5H12.1905C14.2261 0.5 16.0131 1.58298 17.0253 3.21355C20.884 3.25337 24 6.44831 24 10.3837V11.7403H20.9524V10.3837C20.9524 8.13605 19.1615 6.31395 16.9524 6.31395L14.8571 6.31395C14.8571 4.81551 13.6632 3.60078 12.1905 3.60078H11.4286Z" fill="#F3F5F7"/>
<path d="M20.9438 15.8101L20.9419 15.8101V12.7093C22.6309 12.7093 24 14.1023 24 15.8207V16.3915C24 18.4251 22.3797 20.0736 20.381 20.0736H19.1857C17.2159 20.0736 15.619 18.4489 15.619 16.4448H18.6667C18.6667 16.7364 18.8991 16.9729 19.1857 16.9729H20.381C20.6965 16.9729 20.9524 16.7126 20.9524 16.3915V15.8207C20.9524 15.8192 20.9523 15.8183 20.9523 15.8177L20.9522 15.817C20.9522 15.817 20.9519 15.8164 20.9516 15.8159C20.9511 15.8152 20.9504 15.8143 20.9493 15.8132C20.9486 15.8125 20.948 15.812 20.9475 15.8115C20.9465 15.8108 20.9456 15.8103 20.9456 15.8103L20.9449 15.8102L20.9438 15.8101Z" fill="#F3F5F7"/>
<path d="M13.1429 11.1589C13.1429 10.6238 13.5693 10.1899 14.0952 10.1899H14.381C15.0647 10.1899 15.619 10.7539 15.619 11.4496V14.8411H18.6667V11.4496C18.6667 9.04139 16.7479 7.08915 14.381 7.08915H14.0952C11.8861 7.08915 10.0952 8.91124 10.0952 11.1589H13.1429Z" fill="#F3F5F7"/>
<path d="M45.8777 13.6328C46.1152 13.6328 46.4375 13.6411 46.8446 13.6577C47.2687 13.6577 47.7182 13.6908 48.1932 13.7569C48.6682 13.8066 49.1431 13.9058 49.6181 14.0547C50.11 14.1871 50.5511 14.3856 50.9412 14.6504C51.3314 14.9151 51.6452 15.2543 51.8827 15.6679C52.1371 16.0815 52.2644 16.5944 52.2644 17.2066C52.2644 18.1662 52.0438 18.9355 51.6028 19.5146C51.1787 20.0771 50.6529 20.5073 50.0252 20.8051C49.3976 21.1029 48.7191 21.2932 47.9897 21.3759C47.2772 21.4586 46.6411 21.5 46.0813 21.5C45.9795 21.5 45.759 21.4917 45.4197 21.4752C45.0805 21.4752 44.6818 21.4338 44.2238 21.3511C43.7828 21.2684 43.3078 21.136 42.7989 20.954C42.307 20.772 41.849 20.5156 41.4249 20.1847C41.0178 19.8372 40.6785 19.3988 40.4071 18.8693C40.1357 18.3234 40 17.6616 40 16.8839H43.1043C43.1043 17.0328 43.1297 17.2148 43.1806 17.4299C43.2315 17.6285 43.3502 17.827 43.5368 18.0255C43.7234 18.2241 44.0033 18.3978 44.3765 18.5467C44.7497 18.6791 45.2586 18.7535 45.9032 18.7701C46.7005 18.7866 47.3111 18.7535 47.7352 18.6708C48.1762 18.5881 48.4985 18.4805 48.7021 18.3482C48.9057 18.1993 49.0244 18.0504 49.0583 17.9015C49.1092 17.7526 49.1347 17.6119 49.1347 17.4796C49.1347 17.3307 49.1092 17.1818 49.0583 17.0328C49.0074 16.8839 48.8717 16.7516 48.6512 16.6358C48.4477 16.5034 48.1169 16.3959 47.6589 16.3131C47.2178 16.2304 46.5987 16.1808 45.8014 16.1642C45.1907 16.1477 44.5801 16.065 43.9694 15.9161C43.3587 15.7672 42.8074 15.5438 42.3155 15.246C41.8235 14.9316 41.4249 14.5428 41.1196 14.0796C40.8142 13.6163 40.6616 13.0703 40.6616 12.4416C40.6616 11.7467 40.8142 11.1428 41.1196 10.6299C41.4249 10.1005 41.8235 9.67032 42.3155 9.33942C42.8244 9.00852 43.4011 8.76034 44.0457 8.59489C44.6903 8.42944 45.3688 8.34671 46.0813 8.34671C46.4545 8.34671 46.9549 8.38808 47.5825 8.4708C48.2102 8.55353 48.8208 8.74379 49.4146 9.04161C50.0252 9.33942 50.5426 9.77786 50.9667 10.3569C51.4077 10.936 51.6198 11.7219 51.6028 12.7146H48.4985C48.4985 12.1852 48.312 11.7715 47.9388 11.4737C47.5825 11.1594 46.9379 11.0022 46.005 11.0022C45.3095 11.0022 44.7497 11.1345 44.3256 11.3993C43.9015 11.6474 43.6895 11.9949 43.6895 12.4416C43.6895 12.8718 43.893 13.1779 44.3002 13.3599C44.7073 13.5418 45.2331 13.6328 45.8777 13.6328Z" fill="white"/>
<path d="M57.2887 21.2518H54.1845V4.5H57.2887V13.6825L61.08 8.66934H64.515L60.5965 13.9058L66.0672 21.2518H62.6321L58.8408 16.1891L57.2887 18.1496V21.2518Z" fill="white"/>
<path d="M71.066 8.66934V21.2518H67.9618V8.66934H71.066ZM67.9618 5.86496C67.9618 5.50097 67.9618 5.22798 67.9618 5.04598C67.9788 4.86399 68.0296 4.73163 68.1145 4.6489C68.2162 4.56618 68.3689 4.52482 68.5725 4.52482C68.793 4.50827 69.1068 4.5 69.5139 4.5C69.921 4.5 70.2264 4.50827 70.4299 4.52482C70.6504 4.52482 70.8031 4.56618 70.8879 4.6489C70.9897 4.73163 71.0406 4.86399 71.0406 5.04598C71.0576 5.22798 71.066 5.50097 71.066 5.86496C71.066 6.22895 71.0576 6.50195 71.0406 6.68394C71.0406 6.86594 70.9897 6.9983 70.8879 7.08102C70.8031 7.16375 70.6504 7.21338 70.4299 7.22993C70.2264 7.22993 69.921 7.22993 69.5139 7.22993C69.1068 7.22993 68.793 7.22993 68.5725 7.22993C68.3689 7.21338 68.2162 7.16375 68.1145 7.08102C68.0296 6.9983 67.9788 6.86594 67.9618 6.68394C67.9618 6.50195 67.9618 6.22895 67.9618 5.86496Z" fill="white"/>
<path d="M76.4458 4.5V21.2518H73.3416V4.5H76.4458Z" fill="white"/>
<path d="M81.8498 4.5V21.2518H78.7456V4.5H81.8498Z" fill="white"/>
<path d="M93.0058 4.5V10.1336C93.1584 9.96813 93.3366 9.7944 93.5401 9.61241C93.7437 9.43041 93.9812 9.26496 94.2526 9.11606C94.524 8.96715 94.8378 8.85134 95.194 8.76861C95.5503 8.66934 95.9574 8.61971 96.4154 8.61971C96.9243 8.61971 97.4417 8.71071 97.9675 8.8927C98.5103 9.0747 98.9938 9.35596 99.4179 9.7365C99.8589 10.1005 100.215 10.5637 100.487 11.1263C100.775 11.6723 100.919 12.3175 100.919 13.062V21.2518H97.8148V14.4022C97.8148 14.0051 97.7894 13.6411 97.7385 13.3102C97.6876 12.9628 97.5774 12.6567 97.4077 12.392C97.2551 12.1273 97.0176 11.9204 96.6953 11.7715C96.3899 11.6226 95.9743 11.5482 95.4485 11.5482C94.9057 11.5482 94.4731 11.6226 94.1508 11.7715C93.8285 11.9204 93.574 12.1273 93.3875 12.392C93.2178 12.6567 93.1076 12.9628 93.0567 13.3102C93.0058 13.6411 92.9803 14.0051 92.9803 14.4022L93.0312 21.2518H89.9015V4.5H93.0058Z" fill="white"/>
<path d="M108.755 21.5C108.705 21.5 108.518 21.4917 108.196 21.4752C107.89 21.4586 107.526 21.3842 107.102 21.2518C106.677 21.136 106.228 20.9457 105.753 20.681C105.278 20.4163 104.837 20.0358 104.43 19.5394C104.023 19.0431 103.683 18.4226 103.412 17.6781C103.158 16.917 103.03 15.9822 103.03 14.8737V8.66934H106.135V14.8737C106.135 15.2377 106.169 15.61 106.236 15.9905C106.304 16.371 106.432 16.7185 106.618 17.0328C106.805 17.3472 107.068 17.6119 107.407 17.827C107.746 18.0255 108.196 18.1248 108.755 18.1248C109.315 18.1248 109.765 18.0255 110.104 17.827C110.443 17.6119 110.706 17.3472 110.893 17.0328C111.079 16.7185 111.207 16.371 111.275 15.9905C111.342 15.61 111.376 15.2377 111.376 14.8737V8.66934H114.481V14.8737C114.481 15.9822 114.345 16.917 114.073 17.6781C113.819 18.4226 113.488 19.0431 113.081 19.5394C112.674 20.0358 112.233 20.4163 111.758 20.681C111.283 20.9457 110.833 21.136 110.409 21.2518C109.985 21.3842 109.612 21.4586 109.29 21.4752C108.984 21.4917 108.806 21.5 108.755 21.5Z" fill="white"/>
<path d="M122.235 8.34671C122.286 8.34671 122.464 8.35499 122.77 8.37153C123.092 8.38808 123.465 8.46253 123.889 8.59489C124.313 8.71071 124.763 8.90097 125.238 9.16569C125.713 9.43041 126.154 9.81095 126.561 10.3073C126.968 10.8036 127.299 11.4324 127.553 12.1934C127.825 12.938 127.96 13.8645 127.96 14.973V21.2518H124.856V14.973C124.856 14.609 124.822 14.2367 124.754 13.8562C124.686 13.4757 124.559 13.1282 124.373 12.8139C124.186 12.4995 123.923 12.2431 123.584 12.0445C123.245 11.8294 122.795 11.7219 122.235 11.7219C121.675 11.7219 121.226 11.8294 120.887 12.0445C120.547 12.2431 120.284 12.4995 120.098 12.8139C119.911 13.1282 119.784 13.4757 119.716 13.8562C119.648 14.2367 119.614 14.609 119.614 14.973V21.2518H116.51V14.973C116.51 13.8645 116.637 12.938 116.892 12.1934C117.163 11.4324 117.503 10.8036 117.91 10.3073C118.317 9.81095 118.758 9.43041 119.233 9.16569C119.708 8.90097 120.157 8.71071 120.581 8.59489C121.005 8.46253 121.37 8.38808 121.675 8.37153C121.981 8.35499 122.167 8.34671 122.235 8.34671Z" fill="white"/>
<path d="M133.196 11.6226V17.1569C133.247 17.3555 133.34 17.5375 133.476 17.7029C133.595 17.8353 133.756 17.9594 133.959 18.0752C134.18 18.191 134.46 18.2489 134.799 18.2489H136.733V21.2518H133.629C132.967 21.1856 132.373 21.0036 131.847 20.7058C131.406 20.4577 130.999 20.0937 130.626 19.6139C130.27 19.1175 130.092 18.4392 130.092 17.5788V5.29416H133.196V8.66934H136.122V11.6226H133.196Z" fill="white"/>
<path d="M150.634 13.3599C150.667 13.608 150.693 13.8645 150.71 14.1292C150.744 14.3939 150.761 14.6752 150.761 14.973V15.4197H141.855C141.889 15.701 141.931 15.9905 141.982 16.2883C142.033 16.5696 142.118 16.8509 142.237 17.1321C142.423 17.5623 142.712 17.9428 143.102 18.2737C143.492 18.6046 144.035 18.7701 144.73 18.7701C145.426 18.7701 145.969 18.6046 146.359 18.2737C146.749 17.9428 147.037 17.5623 147.224 17.1321H150.532C150.396 17.7112 150.201 18.2158 149.947 18.646C149.709 19.0762 149.438 19.4484 149.132 19.7628C148.844 20.0771 148.53 20.3418 148.191 20.5569C147.852 20.7555 147.521 20.9209 147.199 21.0533C146.418 21.3511 145.595 21.5 144.73 21.5C143.594 21.4835 142.585 21.2518 141.702 20.8051C141.329 20.6066 140.956 20.3584 140.583 20.0606C140.227 19.7462 139.904 19.3574 139.616 18.8942C139.345 18.4309 139.124 17.8766 138.954 17.2314C138.785 16.5861 138.7 15.8333 138.7 14.973C138.7 14.1127 138.785 13.3599 138.954 12.7146C139.124 12.0693 139.345 11.5151 139.616 11.0518C139.904 10.572 140.227 10.1749 140.583 9.86058C140.956 9.54623 141.329 9.28978 141.702 9.09124C142.585 8.62798 143.594 8.37981 144.73 8.34671C145.663 8.37981 146.537 8.57007 147.351 8.91752C147.69 9.06642 148.03 9.26496 148.369 9.51314C148.725 9.74477 149.048 10.0426 149.336 10.4066C149.641 10.754 149.904 11.1759 150.125 11.6723C150.362 12.1521 150.532 12.7146 150.634 13.3599ZM147.428 13.3599C147.343 13.0951 147.232 12.8304 147.097 12.5657C146.978 12.301 146.808 12.0611 146.588 11.846C146.367 11.6309 146.104 11.4654 145.799 11.3496C145.494 11.2173 145.137 11.1511 144.73 11.1511C144.323 11.1511 143.967 11.2173 143.662 11.3496C143.356 11.4654 143.093 11.6309 142.873 11.846C142.652 12.0611 142.474 12.301 142.339 12.5657C142.203 12.8304 142.101 13.0951 142.033 13.3599H147.428Z" fill="white"/>
<path d="M152.875 12.3423C152.875 11.482 153.062 10.8119 153.435 10.3321C153.808 9.83577 154.216 9.4635 154.657 9.21533C155.182 8.91752 155.776 8.73552 156.438 8.66934H160V11.6723H157.608C157.269 11.6723 156.989 11.7302 156.769 11.846C156.565 11.9618 156.404 12.0859 156.285 12.2182C156.149 12.3837 156.056 12.5657 156.005 12.7642V21.2518H152.875V12.3423Z" fill="white"/>
</svg>
