<svg width="312" height="120" viewBox="0 0 312 120" fill="none" xmlns="http://www.w3.org/2000/svg">
<rect width="312" height="120" transform="translate(0 -0.00195312)" fill="#4402FF"/>
<g opacity="0.6">
<path d="M162.692 21.3075C165.168 19.8784 168.217 19.8784 170.692 21.3074L197.933 37.0349C200.408 38.4639 201.933 41.1049 201.933 43.9631V75.4179C201.933 78.276 200.408 80.917 197.933 82.3461L170.692 98.0735C168.217 99.5026 165.168 99.5026 162.692 98.0735L135.452 82.3461C132.977 80.917 131.452 78.276 131.452 75.4179V43.9631C131.452 41.1049 132.977 38.4639 135.452 37.0349L162.692 21.3075Z" fill="url(#paint0_linear_2970_18432)"/>
<path d="M162.692 21.3075C165.168 19.8784 168.217 19.8784 170.692 21.3074L197.933 37.0349C200.408 38.4639 201.933 41.1049 201.933 43.9631V75.4179C201.933 78.276 200.408 80.917 197.933 82.3461L170.692 98.0735C168.217 99.5026 165.168 99.5026 162.692 98.0735L135.452 82.3461C132.977 80.917 131.452 78.276 131.452 75.4179V43.9631C131.452 41.1049 132.977 38.4639 135.452 37.0349L162.692 21.3075Z" fill="white" fill-opacity="0.2"/>
</g>
<g opacity="0.8">
<path d="M191.631 20.2661C193.591 19.4542 195.794 19.4542 197.754 20.2661L220.405 29.6485C222.365 30.4604 223.922 32.0178 224.734 33.9781L234.117 56.629C234.929 58.5892 234.929 60.7917 234.117 62.752L224.734 85.4029C223.922 87.3631 222.365 88.9205 220.405 89.7325L197.754 99.1148C195.794 99.9268 193.591 99.9268 191.631 99.1148L168.98 89.7325C167.02 88.9205 165.462 87.3631 164.65 85.4029L155.268 62.752C154.456 60.7917 154.456 58.5892 155.268 56.629L164.65 33.9781C165.462 32.0178 167.02 30.4604 168.98 29.6485L191.631 20.2661Z" fill="url(#paint1_linear_2970_18432)"/>
<path d="M191.631 20.2661C193.591 19.4542 195.794 19.4542 197.754 20.2661L220.405 29.6485C222.365 30.4604 223.922 32.0178 224.734 33.9781L234.117 56.629C234.929 58.5892 234.929 60.7917 234.117 62.752L224.734 85.4029C223.922 87.3631 222.365 88.9205 220.405 89.7325L197.754 99.1148C195.794 99.9268 193.591 99.9268 191.631 99.1148L168.98 89.7325C167.02 88.9205 165.462 87.3631 164.65 85.4029L155.268 62.752C154.456 60.7917 154.456 58.5892 155.268 56.629L164.65 33.9781C165.462 32.0178 167.02 30.4604 168.98 29.6485L191.631 20.2661Z" fill="white" fill-opacity="0.2"/>
</g>
<path d="M227.858 20.5231C229.493 19.5794 231.507 19.5794 233.142 20.5231L243.014 26.223C244.649 27.1667 245.655 28.9108 245.655 30.7982V42.1979C245.655 44.0853 244.649 45.8294 243.014 46.7731L233.142 52.473C231.507 53.4167 229.493 53.4167 227.858 52.473L217.986 46.7731C216.351 45.8294 215.345 44.0853 215.345 42.1979V30.7982C215.345 28.9108 216.351 27.1667 217.986 26.223L227.858 20.5231Z" fill="url(#paint2_linear_2970_18432)"/>
<path d="M234.642 17.925L233.142 20.5231L234.642 17.925C232.079 16.4454 228.921 16.4454 226.358 17.925L216.486 23.6249C213.923 25.1045 212.345 27.839 212.345 30.7982V42.1979C212.345 45.1571 213.923 47.8916 216.486 49.3712L226.358 55.071C228.921 56.5507 232.079 56.5507 234.642 55.071L244.514 49.3712C247.077 47.8916 248.655 45.1571 248.655 42.1979V30.7982C248.655 27.839 247.077 25.1045 244.514 23.6249L234.642 17.925Z" stroke="#CCB4FF" stroke-opacity="0.2" stroke-width="6"/>
<path d="M221.36 32.1108H223.024V41.2637H221.36V32.1108ZM226.933 40.392C226.933 40.7001 226.828 40.9511 226.616 41.1448C226.414 41.3385 226.167 41.4354 225.877 41.4354C225.577 41.4354 225.326 41.3385 225.124 41.1448C224.921 40.9511 224.82 40.7001 224.82 40.392C224.82 40.0838 224.921 39.8329 225.124 39.6391C225.326 39.4366 225.577 39.3354 225.877 39.3354C226.167 39.3354 226.414 39.4366 226.616 39.6391C226.828 39.8329 226.933 40.0838 226.933 40.392ZM235.097 41.2637C234.974 40.9027 234.846 40.5461 234.714 40.1939C234.582 39.8417 234.454 39.4807 234.331 39.1108H230.474C230.351 39.4807 230.223 39.8461 230.091 40.2071C229.968 40.5593 229.845 40.9115 229.721 41.2637H227.991C228.335 40.2863 228.66 39.3838 228.968 38.5561C229.277 37.7285 229.576 36.9448 229.867 36.2052C230.166 35.4656 230.461 34.7612 230.751 34.092C231.042 33.4228 231.341 32.7624 231.65 32.1108H233.221C233.529 32.7624 233.829 33.4228 234.119 34.092C234.41 34.7612 234.701 35.4656 234.991 36.2052C235.29 36.9448 235.594 37.7285 235.902 38.5561C236.219 39.3838 236.55 40.2863 236.893 41.2637H235.097ZM232.402 33.8807C232.2 34.3473 231.967 34.9152 231.702 35.5844C231.447 36.2536 231.179 36.98 230.897 37.7637H233.908C233.626 36.98 233.353 36.2492 233.089 35.5712C232.825 34.8932 232.596 34.3297 232.402 33.8807ZM240.076 40.392C240.076 40.7001 239.971 40.9511 239.759 41.1448C239.557 41.3385 239.31 41.4354 239.02 41.4354C238.72 41.4354 238.47 41.3385 238.267 41.1448C238.064 40.9511 237.963 40.7001 237.963 40.392C237.963 40.0838 238.064 39.8329 238.267 39.6391C238.47 39.4366 238.72 39.3354 239.02 39.3354C239.31 39.3354 239.557 39.4366 239.759 39.6391C239.971 39.8329 240.076 40.0838 240.076 40.392Z" fill="white"/>
<g opacity="0.4">
<path d="M96.2682 65.3504C93.144 62.2262 93.144 57.1609 96.2682 54.0367L125.65 24.6554C128.774 21.5312 133.839 21.5312 136.963 24.6554L166.345 54.0367C169.469 57.1609 169.469 62.2262 166.345 65.3504L136.963 94.7318C133.839 97.856 128.774 97.856 125.65 94.7318L96.2682 65.3504Z" fill="url(#paint3_linear_2970_18432)"/>
<path d="M96.2682 65.3504C93.144 62.2262 93.144 57.1609 96.2682 54.0367L125.65 24.6554C128.774 21.5312 133.839 21.5312 136.963 24.6554L166.345 54.0367C169.469 57.1609 169.469 62.2262 166.345 65.3504L136.963 94.7318C133.839 97.856 128.774 97.856 125.65 94.7318L96.2682 65.3504Z" fill="white" fill-opacity="0.2"/>
</g>
<g opacity="0.2">
<path d="M64 59.8887C64 39.7303 80.3416 23.3887 100.5 23.3887C120.658 23.3887 137 39.7303 137 59.8887C137 80.0471 120.658 96.3887 100.5 96.3887C80.3416 96.3887 64 80.0471 64 59.8887Z" fill="url(#paint4_linear_2970_18432)"/>
<path d="M64 59.8887C64 39.7303 80.3416 23.3887 100.5 23.3887C120.658 23.3887 137 39.7303 137 59.8887C137 80.0471 120.658 96.3887 100.5 96.3887C80.3416 96.3887 64 80.0471 64 59.8887Z" fill="white" fill-opacity="0.2"/>
</g>
<defs>
<linearGradient id="paint0_linear_2970_18432" x1="126" y1="59.6902" x2="207.385" y2="59.6902" gradientUnits="userSpaceOnUse">
<stop stop-color="#9868FF"/>
<stop offset="1" stop-color="#4C73FF"/>
</linearGradient>
<linearGradient id="paint1_linear_2970_18432" x1="154" y1="59.6902" x2="235.385" y2="59.6902" gradientUnits="userSpaceOnUse">
<stop stop-color="#9868FF"/>
<stop offset="1" stop-color="#4C73FF"/>
</linearGradient>
<linearGradient id="paint2_linear_2970_18432" x1="213" y1="36.4981" x2="248" y2="36.4981" gradientUnits="userSpaceOnUse">
<stop stop-color="#B694FF"/>
<stop offset="1" stop-color="#4402FF"/>
</linearGradient>
<linearGradient id="paint3_linear_2970_18432" x1="131.306" y1="100.389" x2="131.306" y2="18.9985" gradientUnits="userSpaceOnUse">
<stop stop-color="#9868FF"/>
<stop offset="1" stop-color="#4C73FF"/>
</linearGradient>
<linearGradient id="paint4_linear_2970_18432" x1="64" y1="59.8884" x2="137" y2="59.8884" gradientUnits="userSpaceOnUse">
<stop stop-color="#9868FF"/>
<stop offset="1" stop-color="#4C73FF"/>
</linearGradient>
</defs>
</svg>
