<svg width="312" height="120" viewBox="0 0 312 120" fill="none" xmlns="http://www.w3.org/2000/svg">
<rect width="312" height="120" transform="translate(0 -0.00195312)" fill="#4402FF"/>
<rect width="312" height="120" transform="translate(0 -0.00195312)" fill="white" fill-opacity="0.5"/>
<path opacity="0.4" d="M132.268 65.6551C129.144 62.5309 129.144 57.4656 132.268 54.3414L161.65 24.9601C164.774 21.8359 169.839 21.8359 172.963 24.96L202.345 54.3414C205.469 57.4656 205.469 62.5309 202.345 65.6551L172.963 95.0365C169.839 98.1607 164.774 98.1607 161.65 95.0365L132.268 65.6551Z" fill="url(#paint0_linear_2970_68)"/>
<path opacity="0.2" d="M91 60.498C91 40.3397 107.342 23.998 127.5 23.998C147.658 23.998 164 40.3397 164 60.498C164 80.6564 147.658 96.998 127.5 96.998C107.342 96.998 91 80.6564 91 60.498Z" fill="url(#paint1_linear_2970_68)"/>
<defs>
<linearGradient id="paint0_linear_2970_68" x1="167.306" y1="100.693" x2="167.306" y2="19.3032" gradientUnits="userSpaceOnUse">
<stop stop-color="#B694FF"/>
<stop offset="1" stop-color="#4402FF"/>
</linearGradient>
<linearGradient id="paint1_linear_2970_68" x1="91" y1="60.4981" x2="164" y2="60.4981" gradientUnits="userSpaceOnUse">
<stop stop-color="#B694FF"/>
<stop offset="1" stop-color="#4402FF"/>
</linearGradient>
</defs>
</svg>
