<svg width="312" height="120" viewBox="0 0 312 120" fill="none" xmlns="http://www.w3.org/2000/svg">
<rect width="312" height="120" transform="translate(0 -0.00195312)" fill="#4402FF"/>
<rect width="312" height="120" transform="translate(0 -0.00195312)" fill="white" fill-opacity="0.3"/>
<g opacity="0.8">
<path d="M117.268 65.3504C114.144 62.2262 114.144 57.1609 117.268 54.0367L146.65 24.6554C149.774 21.5312 154.839 21.5312 157.963 24.6554L187.345 54.0367C190.469 57.1609 190.469 62.2262 187.345 65.3504L157.963 94.7318C154.839 97.856 149.774 97.856 146.65 94.7318L117.268 65.3504Z" fill="url(#paint0_linear_2970_29773)"/>
<path d="M117.268 65.3504C114.144 62.2262 114.144 57.1609 117.268 54.0367L146.65 24.6554C149.774 21.5312 154.839 21.5312 157.963 24.6554L187.345 54.0367C190.469 57.1609 190.469 62.2262 187.345 65.3504L157.963 94.7318C154.839 97.856 149.774 97.856 146.65 94.7318L117.268 65.3504Z" fill="white" fill-opacity="0.2"/>
</g>
<g opacity="0.4">
<path d="M76 59.8887C76 39.7303 92.3416 23.3887 112.5 23.3887C132.658 23.3887 149 39.7303 149 59.8887C149 80.0471 132.658 96.3887 112.5 96.3887C92.3416 96.3887 76 80.0471 76 59.8887Z" fill="url(#paint1_linear_2970_29773)"/>
<path d="M76 59.8887C76 39.7303 92.3416 23.3887 112.5 23.3887C132.658 23.3887 149 39.7303 149 59.8887C149 80.0471 132.658 96.3887 112.5 96.3887C92.3416 96.3887 76 80.0471 76 59.8887Z" fill="white" fill-opacity="0.2"/>
</g>
<g opacity="0.8">
<path d="M189.001 21.6981C191.476 20.269 194.526 20.269 197.001 21.6981L224.242 37.4255C226.717 38.8545 228.242 41.4956 228.242 44.3537V75.8085C228.242 78.6666 226.717 81.3077 224.242 82.7367L197.001 98.4641C194.526 99.8932 191.476 99.8932 189.001 98.4641L161.76 82.7367C159.285 81.3077 157.76 78.6667 157.76 75.8085V44.3537C157.76 41.4956 159.285 38.8546 161.76 37.4255L189.001 21.6981Z" fill="url(#paint2_linear_2970_29773)"/>
<path d="M189.001 21.6981C191.476 20.269 194.526 20.269 197.001 21.6981L224.242 37.4255C226.717 38.8545 228.242 41.4956 228.242 44.3537V75.8085C228.242 78.6666 226.717 81.3077 224.242 82.7367L197.001 98.4641C194.526 99.8932 191.476 99.8932 189.001 98.4641L161.76 82.7367C159.285 81.3077 157.76 78.6667 157.76 75.8085V44.3537C157.76 41.4956 159.285 38.8546 161.76 37.4255L189.001 21.6981Z" fill="white" fill-opacity="0.3"/>
</g>
<path d="M225.858 24.5231C227.493 23.5794 229.507 23.5794 231.142 24.5231L241.014 30.223C242.649 31.1667 243.655 32.9108 243.655 34.7982V46.1979C243.655 48.0853 242.649 49.8294 241.014 50.7731L231.142 56.473C229.507 57.4167 227.493 57.4167 225.858 56.473L215.986 50.7731C214.351 49.8294 213.345 48.0853 213.345 46.1979V34.7982C213.345 32.9108 214.351 31.1667 215.986 30.223L225.858 24.5231Z" fill="url(#paint3_linear_2970_29773)"/>
<path d="M232.642 21.925L231.142 24.5231L232.642 21.925C230.079 20.4454 226.921 20.4454 224.358 21.925L214.486 27.6249C211.923 29.1045 210.345 31.839 210.345 34.7982V46.1979C210.345 49.1571 211.923 51.8916 214.486 53.3712L224.358 59.071C226.921 60.5507 230.079 60.5507 232.642 59.071L242.514 53.3712C245.077 51.8916 246.655 49.1571 246.655 46.1979V34.7982C246.655 31.839 245.077 29.1045 242.514 27.6249L232.642 21.925Z" stroke="#CCB4FF" stroke-opacity="0.2" stroke-width="6"/>
<path d="M219.36 36.1108H221.024V45.2637H219.36V36.1108ZM224.933 44.392C224.933 44.7001 224.828 44.9511 224.616 45.1448C224.414 45.3385 224.167 45.4354 223.877 45.4354C223.577 45.4354 223.326 45.3385 223.124 45.1448C222.921 44.9511 222.82 44.7001 222.82 44.392C222.82 44.0838 222.921 43.8329 223.124 43.6391C223.326 43.4366 223.577 43.3354 223.877 43.3354C224.167 43.3354 224.414 43.4366 224.616 43.6391C224.828 43.8329 224.933 44.0838 224.933 44.392ZM233.097 45.2637C232.974 44.9027 232.846 44.5461 232.714 44.1939C232.582 43.8417 232.454 43.4807 232.331 43.1108H228.474C228.351 43.4807 228.223 43.8461 228.091 44.2071C227.968 44.5593 227.845 44.9115 227.721 45.2637H225.991C226.335 44.2863 226.66 43.3838 226.968 42.5561C227.277 41.7285 227.576 40.9448 227.867 40.2052C228.166 39.4656 228.461 38.7612 228.751 38.092C229.042 37.4228 229.341 36.7624 229.65 36.1108H231.221C231.529 36.7624 231.829 37.4228 232.119 38.092C232.41 38.7612 232.701 39.4656 232.991 40.2052C233.29 40.9448 233.594 41.7285 233.902 42.5561C234.219 43.3838 234.55 44.2863 234.893 45.2637H233.097ZM230.402 37.8807C230.2 38.3473 229.967 38.9152 229.702 39.5844C229.447 40.2536 229.179 40.98 228.897 41.7637H231.908C231.626 40.98 231.353 40.2492 231.089 39.5712C230.825 38.8932 230.596 38.3297 230.402 37.8807ZM238.076 44.392C238.076 44.7001 237.971 44.9511 237.759 45.1448C237.557 45.3385 237.31 45.4354 237.02 45.4354C236.72 45.4354 236.47 45.3385 236.267 45.1448C236.064 44.9511 235.963 44.7001 235.963 44.392C235.963 44.0838 236.064 43.8329 236.267 43.6391C236.47 43.4366 236.72 43.3354 237.02 43.3354C237.31 43.3354 237.557 43.4366 237.759 43.6391C237.971 43.8329 238.076 44.0838 238.076 44.392Z" fill="white"/>
<defs>
<linearGradient id="paint0_linear_2970_29773" x1="152.306" y1="100.389" x2="152.306" y2="18.9985" gradientUnits="userSpaceOnUse">
<stop stop-color="#9868FF"/>
<stop offset="1" stop-color="#4C73FF"/>
</linearGradient>
<linearGradient id="paint1_linear_2970_29773" x1="76" y1="59.8884" x2="149" y2="59.8884" gradientUnits="userSpaceOnUse">
<stop stop-color="#9868FF"/>
<stop offset="1" stop-color="#4C73FF"/>
</linearGradient>
<linearGradient id="paint2_linear_2970_29773" x1="152.309" y1="60.0809" x2="233.693" y2="60.0809" gradientUnits="userSpaceOnUse">
<stop stop-color="#9868FF"/>
<stop offset="1" stop-color="#4C73FF"/>
</linearGradient>
<linearGradient id="paint3_linear_2970_29773" x1="211" y1="40.4981" x2="246" y2="40.4981" gradientUnits="userSpaceOnUse">
<stop stop-color="#B694FF"/>
<stop offset="1" stop-color="#4402FF"/>
</linearGradient>
</defs>
</svg>
